<svg width="34" height="34" viewBox="0 0 34 34" fill="none" xmlns="http://www.w3.org/2000/svg">
<path d="M30.629 24.3442C26.514 29.8259 17.7273 27.9759 12.0923 28.2409C12.0923 28.2409 11.094 28.2975 10.0906 28.4625C10.0906 28.4625 10.4706 28.3009 10.9556 28.1325C14.9123 26.7642 16.7823 26.4892 19.1873 25.2542C23.704 22.9409 28.2006 17.8992 29.1156 12.6625C27.3956 17.6992 22.1656 22.0342 17.404 23.7942C14.1456 24.9975 8.25063 26.1675 8.24896 26.1675C8.16887 26.1265 8.08942 26.0843 8.01063 26.0409C4.00229 24.0909 3.88563 15.4075 11.1673 12.6092C14.3606 11.3825 17.4123 12.0559 20.864 11.2342C24.544 10.3592 28.8073 7.60087 30.539 3.99421C32.4806 9.75754 34.814 18.7709 30.629 24.3442ZM30.699 2.21087C30.2334 3.32712 29.6376 4.38445 28.924 5.36087C27.3726 3.76195 25.5159 2.4909 23.464 1.62313C21.4121 0.755363 19.2068 0.308551 16.979 0.309205C7.77396 0.309205 0.287294 7.79587 0.287294 16.9992C0.286219 19.2949 0.760237 21.566 1.67953 23.6696C2.59882 25.7732 3.94349 27.6639 5.62896 29.2225L5.99563 29.5459C5.72837 29.2782 5.57836 28.9153 5.5786 28.537C5.57883 28.1587 5.72929 27.796 5.99688 27.5287C6.26447 27.2613 6.62729 27.1112 7.00556 27.1112C7.38383 27.1113 7.74659 27.2616 8.01407 27.5291C8.28155 27.7966 8.43185 28.1593 8.43193 28.5376C8.43201 28.9159 8.28186 29.2787 8.01449 29.5463C7.74712 29.8139 7.38442 29.9643 7.00615 29.9646C6.62788 29.9648 6.26499 29.8148 5.99729 29.5475L6.24563 29.7675C9.2463 32.3044 13.0496 33.6946 16.979 33.6909C25.7756 33.6909 33.0006 26.8442 33.619 18.2042C34.0756 13.9725 32.8256 8.59921 30.699 2.21087Z" fill="#6AAD3D"/>
</svg>
